<svg xmlns="http://www.w3.org/2000/svg" viewBox="0 0 500 500" width="100%" height="100%">
  <defs>
    <radialGradient id="bgGrad" cx="50%" cy="50%" r="75%">
      <stop offset="0%" stop-color="#2a9e88" />
      <stop offset="100%" stop-color="#0a5949" />
    </radialGradient>
    
    <linearGradient id="gradTop" x1="0%" y1="0%" x2="100%" y2="0%">
      <stop offset="0%" stop-color="#d6eee3"/>
      <stop offset="100%" stop-color="#b8d9ca"/>
    </linearGradient>
    
    <linearGradient id="gradTopFront" x1="0%" y1="0%" x2="100%" y2="0%">
      <stop offset="0%" stop-color="#8bc7b1"/>
      <stop offset="100%" stop-color="#73a995"/>
    </linearGradient>
    
    <linearGradient id="gradRight" x1="0%" y1="0%" x2="0%" y2="100%">
      <stop offset="0%" stop-color="#559985"/>
      <stop offset="100%" stop-color="#3c7c69"/>
    </linearGradient>
    
    <linearGradient id="gradRightInner" x1="0%" y1="0%" x2="0%" y2="100%">
      <stop offset="0%" stop-color="#7fb5a6"/>
      <stop offset="100%" stop-color="#5a9783"/>
    </linearGradient>
    
    <linearGradient id="gradLeft" x1="0%" y1="100%" x2="0%" y2="0%">
      <stop offset="0%" stop-color="#7db5a1"/>
      <stop offset="100%" stop-color="#a0d1c3"/>
    </linearGradient>
    
    <linearGradient id="gradLeftInner" x1="0%" y1="100%" x2="0%" y2="0%">
      <stop offset="0%" stop-color="#46826f"/>
      <stop offset="100%" stop-color="#609c89"/>
    </linearGradient>
  </defs>

  <rect width="500" height="500" fill="url(#bgGrad)" />

  <g stroke="none">
    <polygon points="250,380 134.6,180 169.3,180 267.6,349.5" fill="url(#gradLeft)" />
    <polygon points="250,319 169.3,180 205,180 267.6,288.5" fill="url(#gradLeftInner)" />

    <polygon points="400,120 267.6,349.5 250,319 365,120" fill="url(#gradRight)" />
    <polygon points="330,180 267.6,288.5 250,258 295,180" fill="url(#gradRightInner)" />

    <polygon points="117.3,150 348,150 330,180 134.6,180" fill="url(#gradTopFront)" />
    <polygon points="100,120 365,120 348,150 117.3,150" fill="url(#gradTop)" />
  </g>
</svg>